
<svg version="1.0" xmlns="http://www.w3.org/2000/svg"
 width="16.000000pt" height="16.000000pt" viewBox="0 0 16.000000 16.000000"
 preserveAspectRatio="xMidYMid meet">
    <g transform="translate(0.000000,16.000000) scale(0.006154,-0.006154)"
    fill="#000000" stroke="none">
        <path fill="black" d="M1208 2555 c-2 -2 -35 -6 -75 -9 -137 -13 -324 -71 -463 -144 -227
        -120 -425 -322 -539 -550 -35 -69 -88 -224 -97 -282 -3 -19 -7 -37 -9 -41 -7
        -10 -18 -155 -18 -229 0 -75 11 -218 18 -229 1 -3 6 -23 9 -45 3 -21 18 -73
        32 -115 109 -329 352 -599 667 -740 72 -32 205 -78 250 -85 15 -3 35 -7 45
        -10 70 -20 366 -28 467 -12 160 25 255 54 421 132 48 23 173 99 184 113 3 3
        22 18 42 34 165 123 327 355 394 567 26 81 28 89 48 200 21 113 14 350 -13
        474 -25 111 -84 261 -136 349 -230 386 -630 612 -1102 621 -68 2 -124 2 -125
        1z m247 -621 c55 -14 107 -36 175 -75 14 -7 59 -48 101 -90 85 -86 146 -196
        170 -309 14 -66 18 -231 7 -285 -22 -112 -58 -196 -121 -281 -242 -329 -745
        -317 -979 23 -130 189 -153 470 -56 683 123 270 413 408 703 334z"/>
        <path fill="black" d="M1105 1592 c-61 -13 -110 -86 -100 -149 12 -76 62 -119 135 -117 108
        3 166 106 115 204 -23 45 -95 74 -150 62z"/>
        <path fill="black" d="M1392 1580 c-70 -43 -93 -129 -52 -195 51 -83 181 -80 229 5 37 66
        19 145 -42 184 -36 24 -101 27 -135 6z"/>
        <path fill="black" d="M1096 1285 c-49 -17 -69 -36 -85 -80 -44 -122 95 -230 204 -159 79
        51 76 180 -4 227 -40 23 -72 27 -115 12z"/>
        <path fill="black" d="M1415 1289 c-66 -18 -109 -100 -91 -174 7 -29 61 -84 85 -87 62 -6
        80 -3 113 15 65 35 87 121 48 184 -34 56 -92 79 -155 62z"/>
    </g>
</svg>
